<?xml version="1.0" encoding="UTF-8" standalone="no"?>
<svg
   width="2500"
   height="2500"
   viewBox="0 0 192.756 192.756"
   version="1.1"
   id="svg8"
   sodipodi:docname="hyundai-202804.svg"
   inkscape:version="1.2 (1:1.2+202205211824+da316b6974)"
   xmlns:inkscape="http://www.inkscape.org/namespaces/inkscape"
   xmlns:sodipodi="http://sodipodi.sourceforge.net/DTD/sodipodi-0.dtd"
   xmlns="http://www.w3.org/2000/svg"
   xmlns:svg="http://www.w3.org/2000/svg">
  <defs
     id="defs12" />
  <sodipodi:namedview
     id="namedview10"
     pagecolor="#ffffff"
     bordercolor="#000000"
     borderopacity="0.25"
     inkscape:showpageshadow="2"
     inkscape:pageopacity="0.0"
     inkscape:pagecheckerboard="0"
     inkscape:deskcolor="#d1d1d1"
     showgrid="false"
     inkscape:zoom="0.1904"
     inkscape:cx="1200.105"
     inkscape:cy="1257.8782"
     inkscape:window-width="1366"
     inkscape:window-height="704"
     inkscape:window-x="0"
     inkscape:window-y="0"
     inkscape:window-maximized="1"
     inkscape:current-layer="svg8" />
  <path
     fill="#295ba7"
     d="m 8.504,113.751 h 6.803 v 7.48 H 27.46 v -7.48 h 6.718 v 20.993 H 27.46 v -8.839 H 15.22 v 8.755 H 8.504 Z m 26.438,0 h 6.629 l 6.971,8.075 6.886,-8.075 h 6.545 l -10.116,12.834 v 8.159 h -6.715 v -8.754 z m 27.881,0 h 6.716 v 16.234 h 10.795 c 1.7,0 2.805,-1.697 2.805,-3.484 v -12.75 h 6.714 v 16.745 c 0,2.634 -2.974,4.164 -4.675,4.164 H 62.823 Z m 28.475,0 h 22.358 c 2.635,0 4.76,1.613 4.76,4.889 v 16.062 l -6.715,0.042 v -12.749 c 0,-1.782 -0.596,-2.845 -2.891,-2.845 H 98.695 v 15.641 h -7.397 z m 29.159,0 h 19.549 c 3.912,0 6.93,3.144 6.93,5.566 v 9.648 c -0.043,1.699 -2.424,5.778 -5.398,5.778 h -21.08 v -20.992 z m 6.842,16.32 h 10.318 c 1.486,0 2.635,-1.105 2.635,-2.467 v -6.119 c 0,-1.488 -1.223,-2.377 -2.793,-2.377 h -10.16 z m 27.926,-16.409 h 20.953 v 21.082 h -7.482 v -5.437 h -12.879 v 5.437 h -7.564 v -13.686 c -0.171,-4.588 3.911,-7.396 6.972,-7.396 z m 0.507,7.486 v 3.396 h 12.922 v -5.357 h -10.883 c -1.273,0.001 -2.039,0.768 -2.039,1.961 z m 21.805,-7.439 h 6.715 v 21.673 h -6.715 z M 96.787,52.968 c -27.866,0 -50.457,11.154 -50.457,24.909 0,13.756 22.591,24.911 50.457,24.911 27.864,0 50.456,-11.154 50.456,-24.911 C 147.242,64.123 124.65,52.968 96.787,52.968 Z M 92,58.512 c 5.759,-2.036 22.869,0 29.515,3.192 2.127,2.04 -9.484,8.594 -23.309,11.435 C 78.44,77.125 87.834,61.88 92,58.512 Z M 58.055,88.027 C 53.71,84.929 45.202,76.063 59.296,66.846 c 7.445,-4.342 11.61,-5.32 16.75,-6.382 2.483,-0.534 4.255,0.088 2.039,1.95 -4.697,4.875 -14.447,21.003 -15.332,24.551 -0.711,2.395 -2.128,3.012 -4.698,1.062 z m 40.591,10.284 c -8.33,0.884 -26.853,-1.862 -27.209,-4.252 0.356,-5.765 29.426,-15.337 34.654,-10.019 2.218,4.165 -2.036,14.004 -7.445,14.271 z m 42.368,-16.756 c -2.129,4.876 -9.307,10.374 -24.373,14.097 -2.307,0.528 -3.104,-0.888 -1.598,-2.218 2.484,-1.506 14.449,-21.536 15.955,-25.527 0.887,-2.04 2.57,-1.239 3.635,-0.443 4.787,3.101 8.42,8.154 6.381,14.091 z"
     id="path4"
     style="clip-rule:evenodd;fill-rule:evenodd" />
</svg>
