<?xml version="1.0" encoding="UTF-8" standalone="no"?>
<svg
   width="2500"
   height="2500"
   viewBox="0 0 192.756 192.756"
   version="1.1"
   id="svg8"
   sodipodi:docname="lexus-202828.svg"
   inkscape:version="1.2 (1:1.2+202205211824+da316b6974)"
   xmlns:inkscape="http://www.inkscape.org/namespaces/inkscape"
   xmlns:sodipodi="http://sodipodi.sourceforge.net/DTD/sodipodi-0.dtd"
   xmlns="http://www.w3.org/2000/svg"
   xmlns:svg="http://www.w3.org/2000/svg">
  <defs
     id="defs12" />
  <sodipodi:namedview
     id="namedview10"
     pagecolor="#ffffff"
     bordercolor="#000000"
     borderopacity="0.25"
     inkscape:showpageshadow="2"
     inkscape:pageopacity="0.0"
     inkscape:pagecheckerboard="0"
     inkscape:deskcolor="#d1d1d1"
     showgrid="false"
     inkscape:zoom="0.1904"
     inkscape:cx="1257.8782"
     inkscape:cy="1247.3739"
     inkscape:window-width="1366"
     inkscape:window-height="704"
     inkscape:window-x="0"
     inkscape:window-y="0"
     inkscape:window-maximized="1"
     inkscape:current-layer="svg8" />
  <path
     d="m 98.047,56.542 c -3.581,4.416 -13.795,18.673 -14.959,20.519 -2.241,3.537 -2.439,5.251 -2.505,6.393 -0.065,1.121 -0.065,3.142 1.758,4.79 3.054,2.724 7.337,2.284 11.138,2.284 h 31.305 c 1.34,0 1.736,-0.396 2.461,-1.362 2.504,-3.823 3.625,-7.975 3.625,-11.688 0,-7.953 -5.162,-17.97 -18.234,-22.496 l -1.473,2.109 c 10.369,4.92 14.654,11.357 14.654,20.364 0.066,2.417 -0.572,5.031 -2.154,7.448 H 93.214 c -1.823,0 -2.087,-2.065 -1.428,-3.23 a 121.488,121.488 0 0 1 8.721,-13.378 c 3.076,-4.108 6.107,-7.953 9.293,-11.973 0.857,-1.12 0.285,-2.197 -1.428,-2.548 C 104.813,53.027 101.101,52.5 96.597,52.5 71.62,52.5 62.48,66.845 62.48,77.478 c 0,11.534 9.205,24.913 34.183,24.913 13.862,0 22.936,-4.461 28.186,-10.194 h -5.295 c -4.592,4.24 -12.479,7.251 -22.891,7.251 -21.156,0 -28.954,-11.886 -28.954,-22.124 0.153,-9.139 8.523,-21.749 29.482,-22.166 0.791,-0.022 1.407,0.703 0.856,1.384 z m 75.133,65.839 c 1.252,0.176 2.219,1.164 2.219,2.33 0,1.316 -1.186,2.371 -2.637,2.371 h -26.844 v -17.553 h -7.91 v 17.598 h -14.543 c -3.932,0 -4.744,-2.395 -4.744,-4.592 V 109.42 h -13.115 c -1.297,0.879 -2.549,1.846 -3.889,2.658 l -7.777,4.789 -10.105,-7.381 h -15.73 v 4.416 h 5.689 v -2.418 l 13.379,9.602 -9.139,5.732 h -9.93 v 4.416 h 11.489 c 1.23,-0.834 2.395,-1.713 3.669,-2.482 l 7.996,-4.855 10.149,7.25 h 11.557 l -15.27,-11.49 7.844,-5.117 c 1.67,-1.1 3.428,-2.021 5.141,-3.031 v 11.555 c 0,4.877 1.252,8.26 11.072,8.26 l 55.471,-0.131 c 4.283,0.064 7.029,-2.9 7.029,-6.48 0,-3.561 -3.164,-6.482 -7.029,-6.482 h -20.035 c 0.264,-2.438 2.371,-4.48 4.502,-4.48 h 20.277 l -0.064,-4.24 h -21.508 c -6.811,0 -12.258,5.646 -12.412,12.215 -0.021,0.461 0.285,0.746 0.791,0.746 z M 68.105,122.316 v -4.504 h 3.91 v 4.504 z m 0,-12.83 H 53.254 c -4.02,0 -7.118,1.055 -9.402,2.855 -4.108,3.252 -5.426,6.678 -5.382,8.217 h 5.36 c -2.351,1.758 -3.933,3.865 -4.767,6.305 H 21.487 c -3.163,0 -5.207,-2.24 -5.207,-4.416 V 109.332 H 8.504 v 13.621 c 0,4.898 4.658,8.281 12.126,8.281 h 47.475 v -4.416 H 49.256 c 0.088,-2.24 2.482,-4.502 4.657,-4.502 h 14.192 v -4.504 H 49.036 c -0.263,-1.318 2.197,-3.91 4.086,-3.91 h 14.983 z"
     id="path4"
     style="clip-rule:evenodd;fill-rule:evenodd" />
</svg>
