<?xml version="1.0" encoding="UTF-8" standalone="no"?>
<svg
   width="2500"
   height="2062"
   viewBox="0 0 283.465 233.771"
   version="1.1"
   id="svg232"
   sodipodi:docname="toyota-202914.svg"
   inkscape:version="1.2 (1:1.2+202205211824+da316b6974)"
   xmlns:inkscape="http://www.inkscape.org/namespaces/inkscape"
   xmlns:sodipodi="http://sodipodi.sourceforge.net/DTD/sodipodi-0.dtd"
   xmlns="http://www.w3.org/2000/svg"
   xmlns:svg="http://www.w3.org/2000/svg">
  <defs
     id="defs236" />
  <sodipodi:namedview
     id="namedview234"
     pagecolor="#ffffff"
     bordercolor="#000000"
     borderopacity="0.25"
     inkscape:showpageshadow="2"
     inkscape:pageopacity="0.0"
     inkscape:pagecheckerboard="0"
     inkscape:deskcolor="#d1d1d1"
     showgrid="false"
     inkscape:zoom="0.23084384"
     inkscape:cx="1254.0945"
     inkscape:cy="1028.834"
     inkscape:window-width="1366"
     inkscape:window-height="704"
     inkscape:window-x="0"
     inkscape:window-y="0"
     inkscape:window-maximized="1"
     inkscape:current-layer="svg232" />
  <path
     d="m 10.587948,118.97821 c 0,44.97184 58.476,81.56184 130.349982,81.56184 71.873,0 130.35,-36.59 130.35,-81.56184 -0.001,-44.97583 -58.477,-81.56083 -130.351,-81.56083 -71.873982,0 -130.348982,36.585 -130.348982,81.56083 z m 4,0 c 0,-42.76183 56.679,-77.55383 126.349982,-77.55383 69.669,0 126.35,34.792 126.35,77.55383 0,42.77084 -56.681,77.56184 -126.35,77.56184 -69.670982,-0.001 -126.349982,-34.79 -126.349982,-77.56184 z"
     id="path4" />
  <path
     d="m 128.62093,52.24438 c -30.507982,1.863 -52.666982,9.949 -56.443982,20.602 a 9.999,9.999 0 0 0 -0.586,3.345 c 0,1.797 0.508,3.594 1.516,5.312 4.234,7.214 17.377,13.163002 36.079982,16.354 l 1.98,0.324002 0.332,-1.978006 c 3.07,-18.726996 9.809,-33.452996 18.496,-40.405996 l 4.922,-3.944 z m -52.060982,27.242 c -0.652,-1.109 -0.973,-2.203 -0.973,-3.281 0,-0.68 0.117,-1.344 0.359,-2.02 2.883,-8.138 22.468,-15.246 47.486982,-17.539 -7.137,8.073 -12.625,21.082 -15.488,36.887002 C 91.686948,90.52538 79.996948,85.34538 76.559948,79.48638 Z m -4.383,-6.641 z m 50.865982,24.554996 -0.391,2.176 2.207,0.168 c 5.234,0.391004 10.645,0.602004 16.074,0.602004 5.434,0 10.848,-0.211 16.083,-0.602004 l 2.203,-0.168 -0.392,-2.176 c -3.009,-16.897996 -9.703,-26.991996 -17.891,-26.991996 -8.194,0 -14.885,10.094 -17.893,26.991996 z m 17.894,-22.991996 c 5.598,0 10.766,8.383 13.489,21.469002 -4.427,0.288994 -8.936,0.468994 -13.493,0.468994 -4.551,0 -9.062,-0.18 -13.484,-0.468994 2.715,-13.086002 7.891,-21.469002 13.488,-21.469002 z m 10.938,-18.609 c 8.684,6.953 15.43,21.681 18.5,40.405996 l 0.328,1.978006 1.977,-0.324002 c 18.711,-3.190998 31.861,-9.142 36.08,-16.355 1.641,-2.772 1.953,-5.766 0.938,-8.655 -3.776,-10.652 -25.936,-18.738 -56.442,-20.603 l -6.288,-0.391 z m 6.574,0.847 c 25.012,2.293 44.596,9.414 47.471,17.539 0.25,0.676 0.367,1.34 0.367,2.02 0,1.078 -0.328,2.172 -0.965,3.281 -3.449,5.858 -15.143,11.039 -31.393,14.047002 -2.863,-15.804002 -8.343,-28.813002 -15.48,-36.887002 z m -105.575982,24.051 c -13.711,11.485 -20.957,25.12895 -20.957,39.46382 0,33.72185 41.12,62.22585 95.642982,66.28785 l 6.09,0.457 -4.637,-3.961 c -11.945,-10.219 -19.363,-34.465 -19.363,-63.27984 l 0.125,-6.80794 -1.672,-0.34 C 79.422948,107.37732 59.019948,95.318378 56.114948,81.81438 l -0.695,-3.242 z m -16.953,39.46382 c 0,-12.29189 5.996,-24.088816 17.254,-34.33482 5.245,13.645004 24.843,25.01191 52.544982,30.30086 -0.035,1.56198 -0.066,3.53797 -0.066,3.53797 0,26.71784 6.34,49.79184 16.797,62.24084 -49.679982,-5.301 -86.529982,-31.25 -86.529982,-61.74485 z m 85.493982,-3.60397 -0.012,0.726 c 0,26.78382 8.398,46.99082 19.535,46.99082 11.133,0 19.532,-20.207 19.532,-46.99082 l -0.027,-2.88998 -2.148,0.184 c -5.664,0.496 -11.496,0.742 -17.355,0.742 -5.859,0 -11.699,-0.246 -17.348,-0.742 l -2.156,-0.195 z m 35.031,2.14699 c -0.301,24.92083 -8.152,41.57283 -15.508,41.57283 -7.363,0 -15.215,-16.652 -15.508,-41.57283 5.086,0.37499 10.281,0.60899 15.508,0.60899 5.235,0 10.415,-0.234 15.508,-0.60899 z m 69.307,-36.88984 c -2.902,13.503998 -23.309,25.56194 -51.979,30.70289 l -1.68,0.312 0.133,6.83494 c 0,28.81484 -7.422,53.06184 -19.363,63.27984 l -4.637,3.961 6.082,-0.457 c 54.528,-4.062 95.649,-32.566 95.649,-66.28785 0,-14.33487 -7.254,-27.97882 -20.965,-39.46382 l -2.539,-2.125 z m 2.941,4.012 c 11.266,10.246004 17.266,22.04293 17.266,34.33482 0,30.49485 -36.848,56.44385 -86.533,61.74485 10.457,-12.449 16.797,-35.523 16.797,-62.24084 0,0 -0.039,-1.97699 -0.066,-3.53797 27.693,-5.28895 47.29,-16.656856 52.536,-30.30086 z"
     id="path6" />
  <linearGradient
     id="a"
     x1="-907.035"
     x2="-907.035"
     y1="1209.688"
     y2="1300.343"
     gradientTransform="matrix(1,0,0,-1,1047.9712,1391.369)"
     gradientUnits="userSpaceOnUse">
    <stop
       offset="0"
       stop-color="#f0f3f5"
       id="stop8" />
    <stop
       offset=".056"
       stop-color="#e2e5e8"
       id="stop10" />
    <stop
       offset=".138"
       stop-color="#d4d8dd"
       id="stop12" />
    <stop
       offset=".242"
       stop-color="#ccd0d6"
       id="stop14" />
    <stop
       offset=".44"
       stop-color="#caced4"
       id="stop16" />
    <stop
       offset=".568"
       stop-color="#b3b7bd"
       id="stop18" />
    <stop
       offset=".835"
       stop-color="#797c83"
       id="stop20" />
    <stop
       offset="1"
       stop-color="#52545c"
       id="stop22" />
  </linearGradient>
  <path
     fill="url(#a)"
     d="m 227.16993,71.51838 c 0.184,0.508 0.352,1.026 0.484,1.547 0.754,2.996 0.598,5.938 -0.379,8.805 13.008,10.727004 20.676,23.95695 20.676,38.29182 0,35.77985 -47.914,64.79185 -107.014,64.79185 -59.103982,0 -107.013982,-29.012 -107.013982,-64.79185 0,-14.32287 7.676,-27.563816 20.668,-38.29182 -0.969,-2.867 -1.125,-5.809 -0.371,-8.805 a 9.638,9.638 0 0 1 0.621,-1.652 c -17.75,12.646 -28.512,29.219 -28.512,47.36984 0,39.63183 51.308,71.75683 114.606982,71.75683 63.291,0 114.607,-32.125 114.607,-71.75683 0.002,-18.11284 -10.717,-34.64784 -28.373,-47.26484 z"
     id="path25"
     style="fill:url(#a)" />
  <linearGradient
     id="b"
     x1="-907.031"
     x2="-907.031"
     y1="1278.762"
     y2="1327.886"
     gradientTransform="matrix(1,0,0,-1,1047.9712,1391.369)"
     gradientUnits="userSpaceOnUse">
    <stop
       offset="0"
       stop-color="#f0f3f5"
       id="stop27" />
    <stop
       offset=".056"
       stop-color="#e2e5e8"
       id="stop29" />
    <stop
       offset=".138"
       stop-color="#d4d8dd"
       id="stop31" />
    <stop
       offset=".242"
       stop-color="#ccd0d6"
       id="stop33" />
    <stop
       offset=".44"
       stop-color="#caced4"
       id="stop35" />
    <stop
       offset=".568"
       stop-color="#b3b7bd"
       id="stop37" />
    <stop
       offset=".835"
       stop-color="#797c83"
       id="stop39" />
    <stop
       offset="1"
       stop-color="#52545c"
       id="stop41" />
  </linearGradient>
  <path
     fill="url(#b)"
     d="m 156.85893,97.75238 c -5.051,0.379002 -10.375,0.586004 -15.926,0.586004 -5.547,0 -10.867,-0.207002 -15.918,-0.586004 h -0.016 l -3.301,2.398 c 6.09,0.53099 12.521,0.83199 19.238,0.83199 6.718,0 13.148,-0.301 19.242,-0.83199 z m 58.541,-25.141 c -4.023,-13.297 -37.187,-23.062 -74.463,-23.062 -37.27,0 -70.432982,9.767 -74.455982,23.062 -3.492,11.535 15.57,22.211004 45.643982,26.445 l -2.613,-3.180998 C 85.183948,91.73538 70.723948,82.90738 74.059948,73.52138 c 4.043,-11.396 33.408982,-19.648 66.873982,-19.648 33.464,0 62.837,8.254 66.876,19.648 3.332,9.387 -11.121,18.215 -35.455,22.354002 l -2.604,3.180998 c 30.063,-4.233996 49.138,-14.91 45.649,-26.445 z"
     id="path44"
     style="fill:url(#b)" />
  <linearGradient
     id="c"
     x1="-890.724"
     x2="-921.397"
     y1="1287.791"
     y2="1313.529"
     gradientTransform="matrix(1,0,0,-1,1047.9712,1391.369)"
     gradientUnits="userSpaceOnUse">
    <stop
       offset="0"
       stop-color="#f0f3f5"
       id="stop46" />
    <stop
       offset=".056"
       stop-color="#e2e5e8"
       id="stop48" />
    <stop
       offset=".138"
       stop-color="#d4d8dd"
       id="stop50" />
    <stop
       offset=".242"
       stop-color="#ccd0d6"
       id="stop52" />
    <stop
       offset=".44"
       stop-color="#caced4"
       id="stop54" />
    <stop
       offset=".568"
       stop-color="#b3b7bd"
       id="stop56" />
    <stop
       offset=".835"
       stop-color="#797c83"
       id="stop58" />
    <stop
       offset="1"
       stop-color="#52545c"
       id="stop60" />
  </linearGradient>
  <path
     fill="url(#c)"
     d="m 125.05493,97.75238 c 2.793,-15.52 8.852,-25.219 15.879,-25.219 7.035,0 13.089,9.699 15.886,25.219 h 0.056 l 3.267,2.371 c -2.758,-20.496 -10.312,-33.594 -19.204,-33.594 -8.898,0 -16.449,13.098 -19.203,33.594 l 3.266,-2.371 z"
     id="path63"
     style="fill:url(#c)" />
  <linearGradient
     id="d"
     x1="-887.604"
     x2="-932.331"
     y1="1244.974"
     y2="1270.797"
     gradientTransform="matrix(1,0,0,-1,1047.9712,1391.369)"
     gradientUnits="userSpaceOnUse">
    <stop
       offset="0"
       stop-color="#f0f3f5"
       id="stop65" />
    <stop
       offset=".056"
       stop-color="#e2e5e8"
       id="stop67" />
    <stop
       offset=".138"
       stop-color="#d4d8dd"
       id="stop69" />
    <stop
       offset=".242"
       stop-color="#ccd0d6"
       id="stop71" />
    <stop
       offset=".44"
       stop-color="#caced4"
       id="stop73" />
    <stop
       offset=".568"
       stop-color="#b3b7bd"
       id="stop75" />
    <stop
       offset=".835"
       stop-color="#797c83"
       id="stop77" />
    <stop
       offset="1"
       stop-color="#52545c"
       id="stop79" />
  </linearGradient>
  <path
     fill="url(#d)"
     d="m 161.13293,111.73628 -2.672,4.83195 c 0,0.352 0.016,0.714 0.016,1.081 0,25.72582 -7.867,45.23182 -17.542,45.23182 -9.684,0 -17.535,-19.508 -17.535,-45.23182 0,-0.406 0.008,-0.809 0.016,-1.19799 l -2.676,-4.71496 a 145.44,145.44 0 0 0 -0.117,5.88595 c 0,29.16682 9.094,51.26082 20.316,51.26082 11.222,0 20.324,-22.094 20.324,-51.26082 a 147.012,147.012 0 0 0 -0.13,-5.88595 z"
     id="path82"
     style="fill:url(#d)" />
  <linearGradient
     id="e"
     x1="-922.726"
     x2="-922.726"
     y1="1351.951"
     y2="1274.035"
     gradientTransform="matrix(1,0,0,-1,1047.9712,1391.369)"
     gradientUnits="userSpaceOnUse">
    <stop
       offset="0"
       stop-color="#f0f3f5"
       id="stop84" />
    <stop
       offset=".056"
       stop-color="#e2e5e8"
       id="stop86" />
    <stop
       offset=".138"
       stop-color="#d4d8dd"
       id="stop88" />
    <stop
       offset=".242"
       stop-color="#ccd0d6"
       id="stop90" />
    <stop
       offset=".44"
       stop-color="#caced4"
       id="stop92" />
    <stop
       offset=".568"
       stop-color="#b3b7bd"
       id="stop94" />
    <stop
       offset=".835"
       stop-color="#797c83"
       id="stop96" />
    <stop
       offset="1"
       stop-color="#52545c"
       id="stop98" />
  </linearGradient>
  <path
     fill="url(#e)"
     d="m 112.16793,99.06838 c 3.844,-28.488 15.27,-49.521 28.77,-49.521 -14.473,0 -26.809,18.634 -31.387,46.384004 l 2.578,3.136996 z"
     id="path101"
     style="fill:url(#e)" />
  <linearGradient
     id="f"
     x1="-891.344"
     x2="-891.344"
     y1="1351.951"
     y2="1274.035"
     gradientTransform="matrix(1,0,0,-1,1047.9712,1391.369)"
     gradientUnits="userSpaceOnUse">
    <stop
       offset="0"
       stop-color="#f0f3f5"
       id="stop103" />
    <stop
       offset=".056"
       stop-color="#e2e5e8"
       id="stop105" />
    <stop
       offset=".138"
       stop-color="#d4d8dd"
       id="stop107" />
    <stop
       offset=".242"
       stop-color="#ccd0d6"
       id="stop109" />
    <stop
       offset=".44"
       stop-color="#caced4"
       id="stop111" />
    <stop
       offset=".568"
       stop-color="#b3b7bd"
       id="stop113" />
    <stop
       offset=".835"
       stop-color="#797c83"
       id="stop115" />
    <stop
       offset="1"
       stop-color="#52545c"
       id="stop117" />
  </linearGradient>
  <path
     fill="url(#f)"
     d="m 169.71093,99.06838 h 0.027 l 2.578,-3.136996 c -4.57,-27.750004 -16.914,-46.384004 -31.379,-46.384004 13.5,0.002 24.934,21.033 28.774,49.521 z"
     id="path120"
     style="fill:url(#f)" />
  <linearGradient
     id="g"
     x1="-890.393"
     x2="-890.393"
     y1="1352.606"
     y2="1222.572"
     gradientTransform="matrix(1,0,0,-1,1047.9712,1391.369)"
     gradientUnits="userSpaceOnUse">
    <stop
       offset="0"
       stop-color="#f0f3f5"
       id="stop122" />
    <stop
       offset=".056"
       stop-color="#e2e5e8"
       id="stop124" />
    <stop
       offset=".138"
       stop-color="#d4d8dd"
       id="stop126" />
    <stop
       offset=".242"
       stop-color="#ccd0d6"
       id="stop128" />
    <stop
       offset=".44"
       stop-color="#caced4"
       id="stop130" />
    <stop
       offset=".568"
       stop-color="#b3b7bd"
       id="stop132" />
    <stop
       offset=".835"
       stop-color="#797c83"
       id="stop134" />
    <stop
       offset="1"
       stop-color="#52545c"
       id="stop136" />
  </linearGradient>
  <path
     fill="url(#g)"
     d="m 174.11293,114.47025 -3.281,-3.91796 h -0.027 c 0.184,3.11297 0.289,6.27694 0.289,9.49091 0,38.93385 -13.504,70.49485 -30.156,70.49485 18.671,0 33.281,-29.272 33.281,-70.49485 0,-1.88598 -0.039,-3.73596 -0.106,-5.57295 z"
     id="path139"
     style="fill:url(#g)" />
  <linearGradient
     id="h"
     x1="-923.675"
     x2="-923.675"
     y1="1352.606"
     y2="1222.572"
     gradientTransform="matrix(1,0,0,-1,1047.9712,1391.369)"
     gradientUnits="userSpaceOnUse">
    <stop
       offset="0"
       stop-color="#f0f3f5"
       id="stop141" />
    <stop
       offset=".056"
       stop-color="#e2e5e8"
       id="stop143" />
    <stop
       offset=".138"
       stop-color="#d4d8dd"
       id="stop145" />
    <stop
       offset=".242"
       stop-color="#ccd0d6"
       id="stop147" />
    <stop
       offset=".44"
       stop-color="#caced4"
       id="stop149" />
    <stop
       offset=".568"
       stop-color="#b3b7bd"
       id="stop151" />
    <stop
       offset=".835"
       stop-color="#797c83"
       id="stop153" />
    <stop
       offset="1"
       stop-color="#52545c"
       id="stop155" />
  </linearGradient>
  <path
     fill="url(#h)"
     d="m 110.78893,120.0442 c 0,-3.21397 0.105,-6.37794 0.285,-9.49091 h -0.022 l -3.289,3.90596 a 155.884,155.884 0 0 0 -0.109,5.58495 c 0,41.22285 14.621,70.49485 33.285,70.49485 -16.646,0 -30.15,-31.562 -30.15,-70.49485 z"
     id="path158"
     style="fill:url(#h)" />
  <path
     fill="#2d2f34"
     d="m 227.27493,81.86938 c 4.973,4.102 9.168,8.578 12.449,13.331996 a 45.87,45.87 0 0 0 -8.75,-20.819996 89.125,89.125 0 0 0 -3.806,-2.862 c 0.185,0.508 0.353,1.026 0.483,1.547 0.757,2.995 0.601,5.936 -0.376,8.803 z m -172.682982,0 c -0.969,-2.867 -1.125,-5.809 -0.371,-8.805 a 9.638,9.638 0 0 1 0.621,-1.652 119.88,119.88 0 0 0 -3.941,2.969 46.053,46.053 0 0 0 -8.75,20.819996 c 3.281,-4.753996 7.468,-9.230996 12.441,-13.331996 z"
     id="path160" />
  <linearGradient
     id="i"
     x1="-907.038"
     x2="-907.038"
     y1="1351.944"
     y2="1192.832"
     gradientTransform="matrix(1,0,0,-1,1047.9712,1391.369)"
     gradientUnits="userSpaceOnUse">
    <stop
       offset="0"
       stop-color="#f0f3f5"
       id="stop162" />
    <stop
       offset=".253"
       stop-color="#edf0f3"
       id="stop164" />
    <stop
       offset=".406"
       stop-color="#e5e8ea"
       id="stop166" />
    <stop
       offset=".531"
       stop-color="#d7dadc"
       id="stop168" />
    <stop
       offset=".642"
       stop-color="#c3c5c9"
       id="stop170" />
    <stop
       offset=".744"
       stop-color="#a9abaf"
       id="stop172" />
    <stop
       offset=".839"
       stop-color="#888b90"
       id="stop174" />
    <stop
       offset=".926"
       stop-color="#63656b"
       id="stop176" />
    <stop
       offset="1"
       stop-color="#3d3f46"
       id="stop178" />
  </linearGradient>
  <path
     fill="url(#i)"
     d="m 12.587948,118.97821 c 0,-43.93383 57.46,-79.55783 128.349982,-79.55783 70.88,0 128.341,35.624 128.341,79.55783 0,43.94284 -57.461,79.55384 -128.341,79.55384 -70.889982,-0.001 -128.349982,-35.61 -128.349982,-79.55384 z m 128.348982,71.56084 c 63.292,0 114.607,-32.125 114.607,-71.75683 0,-39.63584 -51.315,-71.77184 -114.607,-71.77184 -63.299982,0 -114.610982,32.138 -114.610982,71.77184 0,39.63183 51.312,71.75683 114.610982,71.75683 z"
     id="path181"
     style="fill:url(#i)" />
  <linearGradient
     id="j"
     x1="-907.03"
     x2="-907.03"
     y1="1351.952"
     y2="1192.83"
     gradientTransform="matrix(1,0,0,-1,1047.9712,1391.369)"
     gradientUnits="userSpaceOnUse">
    <stop
       offset="0"
       stop-color="#f0f3f5"
       id="stop183" />
    <stop
       offset=".253"
       stop-color="#edf0f3"
       id="stop185" />
    <stop
       offset=".406"
       stop-color="#e5e8ea"
       id="stop187" />
    <stop
       offset=".531"
       stop-color="#d7dadc"
       id="stop189" />
    <stop
       offset=".642"
       stop-color="#c3c5c9"
       id="stop191" />
    <stop
       offset=".744"
       stop-color="#a9abaf"
       id="stop193" />
    <stop
       offset=".839"
       stop-color="#888b90"
       id="stop195" />
    <stop
       offset=".926"
       stop-color="#63656b"
       id="stop197" />
    <stop
       offset="1"
       stop-color="#3d3f46"
       id="stop199" />
  </linearGradient>
  <path
     fill="url(#j)"
     d="m 110.78893,120.0442 c 0,-38.52482 13.504,-70.49482 30.148,-70.49482 16.652,0 30.157,31.97 30.157,70.49482 0,38.93385 -13.505,70.49485 -30.157,70.49485 -16.652,0 -30.148,-31.562 -30.148,-70.49485 z m 30.148,48.83885 c 11.223,0 20.325,-22.094 20.325,-51.24882 0,-30.25685 -9.103,-51.10385 -20.325,-51.10385 -11.222,0 -20.316,20.847 -20.316,51.10385 0,29.15482 9.094,51.24882 20.316,51.24882 z"
     id="path202"
     style="fill:url(#j)" />
  <linearGradient
     id="k"
     x1="-907.034"
     x2="-907.034"
     y1="1351.935"
     y2="1192.817"
     gradientTransform="matrix(1,0,0,-1,1047.9712,1391.369)"
     gradientUnits="userSpaceOnUse">
    <stop
       offset="0"
       stop-color="#f0f3f5"
       id="stop204" />
    <stop
       offset=".253"
       stop-color="#edf0f3"
       id="stop206" />
    <stop
       offset=".406"
       stop-color="#e5e8ea"
       id="stop208" />
    <stop
       offset=".531"
       stop-color="#d7dadc"
       id="stop210" />
    <stop
       offset=".642"
       stop-color="#c3c5c9"
       id="stop212" />
    <stop
       offset=".744"
       stop-color="#a9abaf"
       id="stop214" />
    <stop
       offset=".839"
       stop-color="#888b90"
       id="stop216" />
    <stop
       offset=".926"
       stop-color="#63656b"
       id="stop218" />
    <stop
       offset="1"
       stop-color="#3d3f46"
       id="stop220" />
  </linearGradient>
  <path
     fill="url(#k)"
     d="m 54.220948,73.06438 c 3.308,-13.097 43.314,-32.159 86.715982,-32.159 43.398,0 82.03,13.62 86.717,32.159 5.246,20.780004 -33.309,39.58589 -86.717,39.58589 -53.416982,0 -91.969982,-18.804886 -86.715982,-39.58589 z m 86.715982,-23.515 c -37.27,0 -70.432982,9.767 -74.455982,23.062 -4.508,14.895 28.593,28.37099 74.455982,28.37099 45.872,0 78.967,-13.47799 74.463,-28.37099 -4.023,-13.297 -37.185,-23.062 -74.463,-23.062 z"
     id="path223"
     style="fill:url(#k)" />
  <linearGradient
     id="l"
     x1="-907.033"
     x2="-907.033"
     y1="1318.944"
     y2="1273.596"
     gradientTransform="matrix(1,0,0,-1,1047.9712,1391.369)"
     gradientUnits="userSpaceOnUse">
    <stop
       offset="0"
       stop-color="#caced4"
       id="stop225" />
    <stop
       offset="1"
       stop-color="#52545c"
       id="stop227" />
  </linearGradient>
  <path
     fill="url(#l)"
     d="m 120.69893,111.69728 0.023,0.016 2.754,4.85495 c 5.605,0.479 11.434,0.753 17.461,0.753 6.055,0 11.898,-0.273 17.54,-0.765 l 2.68,-4.84495 0.016,-0.016 c -6.445,0.61299 -13.203,0.95299 -20.234,0.95299 a 213.256,213.256 0 0 1 -20.24,-0.95099 z m 107.408,-34.1399 c -0.688,14.858 -23.527,28.02195 -57.287,32.98291 l 0.012,0.012 3.293,3.93496 c 33.033,-5.93794 54.764,-20.523874 53.982,-36.92987 z m -174.338982,0 c -0.781,16.421996 20.948,30.99093 53.974982,36.92987 l 3.301,-3.93496 0.008,-0.012 C 77.285948,105.58033 54.462948,92.41638 53.767948,77.55738 Z"
     id="path230"
     style="fill:url(#l)" />
</svg>
